<mxfile host="app.diagrams.net" modified="2024-06-21T18:59:12.237Z" agent="Mozilla/5.0 (Windows NT 10.0; Win64; x64) AppleWebKit/537.36 (KHTML, like Gecko) Chrome/126.0.0.0 Safari/537.36" version="24.6.1" etag="ElsdoMCSyOCC7s9fuOUg" type="device">
  <diagram id="XtRHHLT9hMPPoSZRFdoH" name="Page-1">
    <mxGraphModel dx="1450" dy="957" grid="0" gridSize="10" guides="0" tooltips="1" connect="0" arrows="0" fold="1" page="0" pageScale="1" pageWidth="850" pageHeight="1100" math="0" shadow="0">
      <root>
        <mxCell id="0" />
        <mxCell id="1" parent="0" />
        <mxCell id="7" style="edgeStyle=none;html=1;exitX=1;exitY=0.25;exitDx=0;exitDy=0;entryX=0;entryY=0.25;entryDx=0;entryDy=0;" parent="1" source="2" target="3" edge="1">
          <mxGeometry relative="1" as="geometry" />
        </mxCell>
        <mxCell id="8" style="edgeStyle=none;html=1;exitX=1;exitY=0.5;exitDx=0;exitDy=0;entryX=-0.02;entryY=0.393;entryDx=0;entryDy=0;entryPerimeter=0;" parent="1" source="2" target="5" edge="1">
          <mxGeometry relative="1" as="geometry">
            <mxPoint x="305" y="170" as="targetPoint" />
          </mxGeometry>
        </mxCell>
        <mxCell id="9" style="edgeStyle=none;html=1;exitX=1;exitY=0.75;exitDx=0;exitDy=0;entryX=-0.027;entryY=0.373;entryDx=0;entryDy=0;entryPerimeter=0;" parent="1" source="2" target="6" edge="1">
          <mxGeometry relative="1" as="geometry" />
        </mxCell>
        <mxCell id="2" value="Document" style="rounded=1;whiteSpace=wrap;html=1;" parent="1" vertex="1">
          <mxGeometry x="45" y="130" width="120" height="60" as="geometry" />
        </mxCell>
        <mxCell id="12" style="edgeStyle=none;html=1;entryX=0;entryY=0.5;entryDx=0;entryDy=0;" parent="1" source="3" target="44" edge="1">
          <mxGeometry relative="1" as="geometry" />
        </mxCell>
        <mxCell id="3" value="Chunk1&amp;nbsp;" style="shape=process;whiteSpace=wrap;html=1;backgroundOutline=1;" parent="1" vertex="1">
          <mxGeometry x="265" y="50" width="120" height="60" as="geometry" />
        </mxCell>
        <mxCell id="5" value="Chunk2" style="shape=process;whiteSpace=wrap;html=1;backgroundOutline=1;" parent="1" vertex="1">
          <mxGeometry x="265" y="140" width="120" height="60" as="geometry" />
        </mxCell>
        <mxCell id="51" style="edgeStyle=none;html=1;exitX=1;exitY=0.5;exitDx=0;exitDy=0;entryX=0;entryY=0.5;entryDx=0;entryDy=0;fontSize=12;fontColor=#FFFFFF;" parent="1" source="6" target="50" edge="1">
          <mxGeometry relative="1" as="geometry" />
        </mxCell>
        <mxCell id="6" value="Chunk3" style="shape=process;whiteSpace=wrap;html=1;backgroundOutline=1;" parent="1" vertex="1">
          <mxGeometry x="265" y="230" width="120" height="60" as="geometry" />
        </mxCell>
        <mxCell id="60" style="edgeStyle=none;html=1;exitX=0.5;exitY=1;exitDx=0;exitDy=0;exitPerimeter=0;entryX=1;entryY=0;entryDx=0;entryDy=0;fontSize=12;fontColor=#FFFFFF;" parent="1" source="11" target="25" edge="1">
          <mxGeometry relative="1" as="geometry" />
        </mxCell>
        <mxCell id="11" value="Vector DB" style="shape=cylinder3;whiteSpace=wrap;html=1;boundedLbl=1;backgroundOutline=1;size=15;" parent="1" vertex="1">
          <mxGeometry x="655" y="110" width="96.25" height="110" as="geometry" />
        </mxCell>
        <mxCell id="17" style="edgeStyle=none;html=1;entryX=0;entryY=0.5;entryDx=0;entryDy=0;" parent="1" source="15" target="18" edge="1">
          <mxGeometry relative="1" as="geometry">
            <mxPoint x="200" y="425" as="targetPoint" />
          </mxGeometry>
        </mxCell>
        <mxCell id="55" style="edgeStyle=none;html=1;exitX=1;exitY=0.5;exitDx=0;exitDy=0;fontSize=12;fontColor=#FFFFFF;" parent="1" source="18" edge="1">
          <mxGeometry relative="1" as="geometry">
            <mxPoint x="355" y="424.57142857142867" as="targetPoint" />
          </mxGeometry>
        </mxCell>
        <mxCell id="18" value="Query" style="rounded=1;whiteSpace=wrap;html=1;" parent="1" vertex="1">
          <mxGeometry x="215" y="395" width="120" height="60" as="geometry" />
        </mxCell>
        <mxCell id="19" value="" style="group" parent="1" vertex="1" connectable="0">
          <mxGeometry x="100" y="395" width="50" height="90" as="geometry" />
        </mxCell>
        <mxCell id="15" value="Actor" style="shape=umlActor;verticalLabelPosition=bottom;verticalAlign=top;html=1;outlineConnect=0;" parent="19" vertex="1">
          <mxGeometry x="10" width="30" height="60" as="geometry" />
        </mxCell>
        <mxCell id="16" value="User" style="text;html=1;align=center;verticalAlign=middle;resizable=0;points=[];autosize=1;strokeColor=#3700CC;fillColor=#6a00ff;fontColor=#ffffff;" parent="19" vertex="1">
          <mxGeometry y="60" width="50" height="30" as="geometry" />
        </mxCell>
        <mxCell id="22" value="&lt;font color=&quot;#0000cc&quot; style=&quot;font-size: 15px;&quot;&gt;PreProcess&lt;/font&gt;" style="text;html=1;align=center;verticalAlign=middle;resizable=0;points=[];autosize=1;strokeColor=#2D7600;fillColor=#60a917;fontColor=#ffffff;" parent="1" vertex="1">
          <mxGeometry x="-60" y="145" width="100" height="30" as="geometry" />
        </mxCell>
        <mxCell id="57" style="edgeStyle=none;html=1;entryX=1;entryY=0.5;entryDx=0;entryDy=0;fontSize=12;fontColor=#FFFFFF;" parent="1" source="23" target="33" edge="1">
          <mxGeometry relative="1" as="geometry" />
        </mxCell>
        <mxCell id="23" value="&lt;font color=&quot;#ffffff&quot;&gt;LLM&lt;/font&gt;" style="ellipse;shape=cloud;whiteSpace=wrap;html=1;fontSize=15;fontColor=#0000CC;" parent="1" vertex="1">
          <mxGeometry x="685" y="527.5" width="120" height="80" as="geometry" />
        </mxCell>
        <mxCell id="58" style="edgeStyle=none;html=1;exitX=0.5;exitY=1;exitDx=0;exitDy=0;entryX=0.496;entryY=0.074;entryDx=0;entryDy=0;entryPerimeter=0;fontSize=12;fontColor=#FFFFFF;" parent="1" source="24" target="23" edge="1">
          <mxGeometry relative="1" as="geometry" />
        </mxCell>
        <mxCell id="24" value="&lt;font style=&quot;font-size: 12px;&quot;&gt;Query + context&lt;/font&gt;" style="rounded=1;whiteSpace=wrap;html=1;fontSize=15;fontColor=#FFFFFF;" parent="1" vertex="1">
          <mxGeometry x="670" y="382.5" width="150" height="75" as="geometry" />
        </mxCell>
        <mxCell id="29" style="edgeStyle=none;html=1;entryX=0;entryY=0.5;entryDx=0;entryDy=0;fontSize=12;fontColor=#FFFFFF;" parent="1" source="25" target="24" edge="1">
          <mxGeometry relative="1" as="geometry" />
        </mxCell>
        <mxCell id="59" style="edgeStyle=none;html=1;exitX=0.75;exitY=0;exitDx=0;exitDy=0;entryX=0.145;entryY=1;entryDx=0;entryDy=-4.35;entryPerimeter=0;fontSize=12;fontColor=#FFFFFF;" parent="1" source="25" target="11" edge="1">
          <mxGeometry relative="1" as="geometry" />
        </mxCell>
        <mxCell id="25" value="&lt;font style=&quot;font-size: 12px;&quot;&gt;Get revelant Context&lt;/font&gt;" style="rounded=1;whiteSpace=wrap;html=1;fontSize=15;fontColor=#FFFFFF;gradientColor=none;fillColor=default;" parent="1" vertex="1">
          <mxGeometry x="505" y="392.5" width="120" height="60" as="geometry" />
        </mxCell>
        <mxCell id="62" style="edgeStyle=none;html=1;entryX=0.463;entryY=1.062;entryDx=0;entryDy=0;entryPerimeter=0;fontSize=12;fontColor=#FFFFFF;" parent="1" source="33" target="16" edge="1">
          <mxGeometry relative="1" as="geometry">
            <Array as="points">
              <mxPoint x="123" y="570" />
              <mxPoint x="123" y="550" />
            </Array>
          </mxGeometry>
        </mxCell>
        <mxCell id="33" value="Result" style="rounded=1;whiteSpace=wrap;html=1;fontSize=12;fontColor=#FFFFFF;" parent="1" vertex="1">
          <mxGeometry x="525" y="537.5" width="120" height="60" as="geometry" />
        </mxCell>
        <mxCell id="34" value="1" style="text;html=1;align=center;verticalAlign=middle;resizable=0;points=[];autosize=1;strokeColor=none;fillColor=none;fontSize=12;fontColor=#FFFFFF;" parent="1" vertex="1">
          <mxGeometry x="-80" y="145" width="30" height="30" as="geometry" />
        </mxCell>
        <mxCell id="35" value="2" style="text;html=1;align=center;verticalAlign=middle;resizable=0;points=[];autosize=1;strokeColor=none;fillColor=none;fontSize=12;fontColor=#FFFFFF;" parent="1" vertex="1">
          <mxGeometry x="-70" y="405" width="30" height="30" as="geometry" />
        </mxCell>
        <mxCell id="36" value="&lt;font color=&quot;#0000cc&quot; style=&quot;font-size: 15px;&quot;&gt;Post Processing&lt;/font&gt;" style="text;html=1;align=center;verticalAlign=middle;resizable=0;points=[];autosize=1;strokeColor=#2D7600;fillColor=#60a917;fontColor=#ffffff;" parent="1" vertex="1">
          <mxGeometry x="-40" y="405" width="130" height="30" as="geometry" />
        </mxCell>
        <mxCell id="45" style="edgeStyle=none;html=1;exitX=1;exitY=0.5;exitDx=0;exitDy=0;entryX=0;entryY=0;entryDx=0;entryDy=15;entryPerimeter=0;fontSize=12;fontColor=#FFFFFF;" parent="1" source="44" target="11" edge="1">
          <mxGeometry relative="1" as="geometry" />
        </mxCell>
        <mxCell id="44" value="Embeeding chunk1" style="shape=process;whiteSpace=wrap;html=1;backgroundOutline=1;" parent="1" vertex="1">
          <mxGeometry x="420" y="50" width="120" height="60" as="geometry" />
        </mxCell>
        <mxCell id="47" value="" style="edgeStyle=none;html=1;entryX=0;entryY=0.5;entryDx=0;entryDy=0;endArrow=none;" parent="1" source="5" target="46" edge="1">
          <mxGeometry relative="1" as="geometry">
            <mxPoint x="385" y="170.48387096774195" as="sourcePoint" />
            <mxPoint x="635" y="172.5" as="targetPoint" />
          </mxGeometry>
        </mxCell>
        <mxCell id="48" style="edgeStyle=none;html=1;exitX=1;exitY=0.5;exitDx=0;exitDy=0;entryX=0;entryY=0;entryDx=0;entryDy=52.5;entryPerimeter=0;fontSize=12;fontColor=#FFFFFF;" parent="1" source="46" target="11" edge="1">
          <mxGeometry relative="1" as="geometry" />
        </mxCell>
        <mxCell id="46" value="Embeeding chunk2" style="shape=process;whiteSpace=wrap;html=1;backgroundOutline=1;" parent="1" vertex="1">
          <mxGeometry x="425" y="140" width="120" height="60" as="geometry" />
        </mxCell>
        <mxCell id="52" style="edgeStyle=none;html=1;exitX=1;exitY=0.25;exitDx=0;exitDy=0;entryX=0;entryY=0;entryDx=0;entryDy=75;entryPerimeter=0;fontSize=12;fontColor=#FFFFFF;" parent="1" source="50" target="11" edge="1">
          <mxGeometry relative="1" as="geometry" />
        </mxCell>
        <mxCell id="50" value="Embeeding chunk 3" style="shape=process;whiteSpace=wrap;html=1;backgroundOutline=1;" parent="1" vertex="1">
          <mxGeometry x="425" y="230" width="120" height="60" as="geometry" />
        </mxCell>
        <mxCell id="56" style="edgeStyle=none;html=1;exitX=1;exitY=0.5;exitDx=0;exitDy=0;entryX=0;entryY=0.5;entryDx=0;entryDy=0;fontSize=12;fontColor=#FFFFFF;" parent="1" source="54" target="25" edge="1">
          <mxGeometry relative="1" as="geometry" />
        </mxCell>
        <mxCell id="54" value="&lt;font style=&quot;font-size: 12px;&quot;&gt;Embeeded Query&lt;/font&gt;" style="rounded=1;whiteSpace=wrap;html=1;fontSize=15;fontColor=#FFFFFF;" parent="1" vertex="1">
          <mxGeometry x="360" y="395" width="120" height="60" as="geometry" />
        </mxCell>
        <mxCell id="61" value="Model Size :&lt;br&gt;4096 token" style="ellipse;whiteSpace=wrap;html=1;fontSize=12;fontColor=#FFFFFF;" parent="1" vertex="1">
          <mxGeometry x="625" y="-10" width="120" height="80" as="geometry" />
        </mxCell>
        <mxCell id="63" value="3" style="text;html=1;align=center;verticalAlign=middle;resizable=0;points=[];autosize=1;strokeColor=none;fillColor=none;fontSize=12;fontColor=#FFFFFF;" parent="1" vertex="1">
          <mxGeometry x="-140" y="725" width="30" height="30" as="geometry" />
        </mxCell>
        <mxCell id="64" value="&lt;font color=&quot;#0000cc&quot; style=&quot;font-size: 15px;&quot;&gt;Evaulatiing using Ragsas&lt;/font&gt;" style="text;html=1;align=center;verticalAlign=middle;resizable=0;points=[];autosize=1;strokeColor=#2D7600;fillColor=#60a917;fontColor=#ffffff;" parent="1" vertex="1">
          <mxGeometry x="-90" y="725" width="190" height="30" as="geometry" />
        </mxCell>
        <mxCell id="68" style="edgeStyle=none;html=1;entryX=0;entryY=0.5;entryDx=0;entryDy=0;" parent="1" source="65" target="67" edge="1">
          <mxGeometry relative="1" as="geometry" />
        </mxCell>
        <mxCell id="65" value="Question&amp;nbsp;" style="rounded=1;whiteSpace=wrap;html=1;" parent="1" vertex="1">
          <mxGeometry x="110" y="710" width="120" height="60" as="geometry" />
        </mxCell>
        <mxCell id="70" style="edgeStyle=none;html=1;" parent="1" source="67" edge="1">
          <mxGeometry relative="1" as="geometry">
            <mxPoint x="450" y="740" as="targetPoint" />
          </mxGeometry>
        </mxCell>
        <mxCell id="67" value="Actual Answer" style="rounded=1;whiteSpace=wrap;html=1;" parent="1" vertex="1">
          <mxGeometry x="280" y="710" width="120" height="60" as="geometry" />
        </mxCell>
        <mxCell id="72" style="edgeStyle=none;html=1;exitX=1;exitY=0.5;exitDx=0;exitDy=0;entryX=0;entryY=0.5;entryDx=0;entryDy=0;" parent="1" source="69" target="71" edge="1">
          <mxGeometry relative="1" as="geometry" />
        </mxCell>
        <mxCell id="69" value="&lt;span style=&quot;color: rgb(255, 255, 255);&quot;&gt;Get revelant Context&lt;/span&gt;" style="rounded=1;whiteSpace=wrap;html=1;" parent="1" vertex="1">
          <mxGeometry x="460" y="710" width="120" height="60" as="geometry" />
        </mxCell>
        <mxCell id="71" value="&lt;span style=&quot;color: rgb(255, 255, 255);&quot;&gt;LLM Response&lt;/span&gt;" style="rounded=1;whiteSpace=wrap;html=1;" parent="1" vertex="1">
          <mxGeometry x="620" y="710" width="120" height="60" as="geometry" />
        </mxCell>
        <mxCell id="76" value="Correntness" style="rounded=1;whiteSpace=wrap;html=1;" parent="1" vertex="1">
          <mxGeometry x="620" y="790" width="120" height="60" as="geometry" />
        </mxCell>
      </root>
    </mxGraphModel>
  </diagram>
</mxfile>
